<svg xmlns="http://www.w3.org/2000/svg" xmlns:xlink="http://www.w3.org/1999/xlink" id="Layer_1" width="91" height="91" enable-background="new 0 0 91 91" version="1.1" viewBox="0 0 91 91" xml:space="preserve"><g><path fill="#ab987a" d="M 72.8 30.2 c -0.6 -0.4 -1.4 -0.4 -2 0.1 l -14.1 11 l -9 -10.8 c -0.6 -0.8 -2 -0.8 -2.6 0 l -9 10.8 L 22.1 30.2 c -0.6 -0.4 -1.4 -0.5 -2 -0.1 c -0.6 0.4 -0.9 1.1 -0.7 1.8 l 6 25.2 c 0.1 4 3.4 7.2 7.4 7.2 h 27.4 c 4 0 7.3 -3.2 7.4 -7.2 l 6 -25.2 C 73.7 31.3 73.4 30.5 72.8 30.2 z M 64.2 56.6 c 0 0.1 0 0.3 0 0.4 c 0 2.2 -1.8 4 -4 4 H 32.8 c -2.2 0 -4 -1.8 -4 -4 c 0 -0.1 0 -0.3 0 -0.4 l -4.9 -20.7 l 11.6 9 c 0.7 0.6 1.8 0.5 2.4 -0.3 l 8.7 -10.5 l 8.7 10.5 c 0.6 0.7 1.6 0.8 2.4 0.2 l 11.5 -9 L 64.2 56.6 z"/><path fill="#ab987a" d="M 45.3 45.9 c -0.3 0.3 -0.5 0.7 -0.5 1.2 c 0 0.5 0.2 0.9 0.5 1.2 c 0.3 0.3 0.7 0.5 1.2 0.5 c 0.4 0 0.9 -0.2 1.2 -0.5 c 0.3 -0.3 0.5 -0.8 0.5 -1.2 c 0 -0.4 -0.2 -0.9 -0.5 -1.2 C 47 45.3 45.9 45.3 45.3 45.9 z"/></g></svg>