<svg xmlns="http://www.w3.org/2000/svg" width="933.333" height="933.333" preserveAspectRatio="xMidYMid meet" version="1.0" viewBox="0 0 700 700"><metadata>Created by potrace 1.14, written by Peter Selinger 2001-2017</metadata><g fill="#000" stroke="none"><path d="M1585 4702 c-53 -11 -95 -65 -95 -122 0 -17 16 -95 35 -173 19 -78 41 -171 50 -207 8 -36 29 -121 45 -190 17 -69 32 -134 34 -145 3 -11 46 -193 97 -405 99 -417 127 -532 135 -568 2 -13 18 -78 34 -145 17 -67 32 -144 35 -172 14 -140 88 -287 189 -375 50 -44 149 -100 216 -122 65 -21 70 -21 1185 -23 832 -1 1138 2 1191 11 145 24 307 135 380 259 39 67 72 162 79 231 4 33 25 133 47 224 22 91 42 175 44 188 2 12 23 98 45 190 37 155 46 195 49 214 1 4 8 31 16 60 14 54 59 240 75 313 10 49 1 9 103 436 47 196 86 372 86 390 0 52 -41 106 -91 119 -56 15 -90 5 -152 -43 -28 -23 -216 -169 -417 -325 -201 -157 -381 -297 -400 -312 -144 -115 -233 -181 -240 -178 -4 2 -58 64 -120 138 -62 74 -131 158 -155 185 -23 28 -73 88 -111 135 -38 47 -72 87 -75 90 -5 4 -168 199 -229 273 -20 25 -64 47 -93 47 -61 0 -86 -21 -234 -198 -81 -98 -152 -182 -158 -188 -5 -7 -98 -118 -205 -247 -107 -130 -199 -236 -204 -236 -8 -1 -67 45 -306 236 -47 38 -127 102 -179 142 -52 41 -102 80 -110 87 -37 30 -237 188 -362 286 -134 106 -183 131 -234 120z m2131 -484 c69 -84 138 -167 152 -184 15 -17 54 -64 87 -105 33 -41 62 -76 65 -79 3 -3 61 -72 129 -154 77 -92 136 -153 155 -161 40 -17 91 -10 130 17 27 20 525 407 566 441 22 18 224 176 278 217 44 33 45 34 39 10 -4 -14 -23 -90 -42 -170 -19 -80 -68 -287 -110 -460 -42 -173 -78 -326 -81 -340 -3 -14 -14 -61 -25 -105 -12 -44 -22 -87 -24 -95 -2 -8 -20 -82 -40 -165 -48 -197 -44 -179 -56 -270 -18 -140 -70 -219 -182 -277 l-52 -28 -1135 3 -1135 2 -54 30 c-100 55 -157 147 -166 266 -2 30 -13 95 -25 144 -12 50 -24 97 -25 105 -5 19 -92 389 -135 570 -18 74 -33 142 -35 150 -2 8 -11 47 -20 85 -9 39 -18 77 -20 85 -2 8 -15 63 -29 123 -93 387 -87 357 -80 357 2 0 100 -74 217 -165 116 -91 225 -176 241 -188 16 -12 55 -42 87 -67 32 -25 72 -56 90 -70 19 -14 56 -43 84 -65 184 -146 205 -159 254 -157 58 2 51 -5 395 412 39 47 75 90 81 96 5 7 71 86 145 177 74 91 138 166 142 166 5 1 65 -68 134 -151z" transform="translate(0.000000,700.000000) scale(0.100000,-0.100000)"/><path d="M3537 3497 c-101 -25 -121 -172 -31 -228 85 -52 186 -2 198 97 11 88 -73 154 -167 131z" transform="translate(0.000000,700.000000) scale(0.100000,-0.100000)"/></g></svg>